<?xml version="1.0" encoding="UTF-8"?>
<svg id="SVGDoc" width="59" height="59" xmlns="http://www.w3.org/2000/svg" version="1.1" xmlns:xlink="http://www.w3.org/1999/xlink" xmlns:avocode="https://avocode.com/" viewBox="0 0 59 59"><defs><clipPath id="ClipPath1042"><path d="M29.50002,0.00001c16.29237,0 29.49998,13.20758 29.49998,29.5001c0,16.29223 -13.2076,29.49982 -29.49998,29.49982c-16.29237,0 -29.49998,-13.20758 -29.49998,-29.49982c0,-16.29252 13.2076,-29.5001 29.49998,-29.5001z" fill="#ffffff"></path></clipPath></defs><desc>Generated with Avocode.</desc><g><g><title>pen</title><path d="M44.10741,27.18572l-15.26272,15.38273c-0.47555,0.47651 -1.06145,0.8241 -1.70504,1.01549l-8.47756,2.22857c-0.02724,0.00406 -0.77248,0.18761 -1.15714,0.18761c-1.93565,0 -3.50493,-1.5675 -3.50493,-3.50019c0,-0.33876 0.15333,-1.00773 0.15631,-1.03102l2.34858,-8.50792c0.19145,-0.64247 0.53714,-1.23252 1.01269,-1.70505l10.33016,-10.40827l-0.00201,-0.00185c0.00778,-0.00805 0.01271,-0.01852 0.02049,-0.0265c0.01471,-0.01453 0.03216,-0.02443 0.04687,-0.03811l4.8672,-4.90423c1.20992,-1.20895 2.86912,-1.87699 4.66889,-1.87699c2.13585,0 4.30082,0.93764 5.94635,2.58015c3.17578,3.16984 3.48827,7.8262 0.71187,10.60557zM30.02439,38.5411l7.72763,-7.78895l-0.01271,-0.01282c0.00784,-0.00784 0.01751,-0.01268 0.02529,-0.02044c1.26761,-1.26757 1.56351,-3.17782 0.98545,-5.00395l-9.45414,9.45318c0.3818,0.8397 0.63672,1.72456 0.71868,2.62773c0.02256,0.253 0.01082,0.49731 0.00979,0.74525zM38.33792,24.71191c-0.32131,-0.62794 -0.7402,-1.23124 -1.28032,-1.77043c-0.63277,-0.63271 -1.3506,-1.10545 -2.09755,-1.43751l-9.53232,9.53139c0.73151,0.40315 1.43274,0.88073 2.04399,1.49222c0.52541,0.52445 0.94922,1.11514 1.32221,1.72834zM33.90924,21.14063c-1.69143,-0.41996 -3.40924,-0.08875 -4.5879,1.06172l-7.70313,7.76159c0.97159,0.01289 1.94233,0.22565 2.86815,0.59874zM21.88772,42.89652c0.05083,-1.15531 -0.41111,-2.40906 -1.39358,-3.39043c-0.96679,-0.96898 -2.19719,-1.41415 -3.33981,-1.38303l-1.0527,3.81431c-0.02249,0.10663 -0.08992,0.3956 -0.10159,0.56256c0,0.82239 0.667,1.49136 1.48928,1.50019c0.23042,-0.0156 0.5693,-0.10157 0.67873,-0.12707zM26.56931,41.6672c0.12603,-0.03832 0.24325,-0.09694 0.35943,-0.15734c1.74608,-1.98233 1.39547,-5.30189 -0.8711,-7.56835c-2.14351,-2.14445 -5.22852,-2.56818 -7.23439,-1.1328c-0.17576,0.20798 -0.31833,0.4441 -0.39062,0.68471l-0.99609,3.60725c1.36039,0.05378 2.72369,0.65522 3.76557,1.69928c1.10158,1.09961 1.64753,2.4961 1.67191,3.83689zM43.98831,22.16303c-0.10056,-1.49706 -0.81249,-2.9766 -2.00587,-4.16788c-1.27053,-1.26757 -2.9228,-1.99515 -4.53325,-1.99515c-1.26554,0 -2.42184,0.45906 -3.24898,1.28608l-1.6572,1.67007c2.13859,0.0057 4.29985,0.94149 5.92872,2.57117c1.4638,1.46294 2.36718,3.33409 2.54288,5.2687c0.02061,0.23049 -0.00681,0.44831 -0.00681,0.67374l1.68462,-1.69721c0.9297,-0.93073 1.38963,-2.21176 1.29588,-3.60953z" fill="#666d89" fill-opacity="1"></path></g><g><title>Ellipse</title><path d="M29.50002,0.00001c16.29237,0 29.49998,13.20758 29.49998,29.5001c0,16.29223 -13.2076,29.49982 -29.49998,29.49982c-16.29237,0 -29.49998,-13.20758 -29.49998,-29.49982c0,-16.29252 13.2076,-29.5001 29.49998,-29.5001z" fill-opacity="0" fill="#ffffff" stroke-dashoffset="0" stroke-dasharray="" stroke-linejoin="miter" stroke-linecap="butt" stroke-opacity="1" stroke="#666d89" stroke-miterlimit="50" stroke-width="4" clip-path="url(&quot;#ClipPath1042&quot;)"></path></g></g></svg>