<?xml version="1.0" encoding="UTF-8"?>
<svg id="SVGDoc" width="59" height="59" xmlns="http://www.w3.org/2000/svg" version="1.1" xmlns:xlink="http://www.w3.org/1999/xlink" xmlns:avocode="https://avocode.com/" viewBox="0 0 59 59"><defs><clipPath id="ClipPath1090"><path d="M29.50001,0.00002c16.29237,0 29.49998,13.20758 29.49998,29.5001c0,16.29223 -13.2076,29.49982 -29.49998,29.49982c-16.29237,0 -29.49998,-13.20758 -29.49998,-29.49982c0,-16.29252 13.2076,-29.5001 29.49998,-29.5001z" fill="#ffffff"></path></clipPath></defs><desc>Generated with Avocode.</desc><g><g><title>bubble</title><path d="M30.5,21.49998c0,0.27658 -0.22367,0.50009 -0.49999,0.50009c-5.32719,0 -9.99997,2.80373 -9.99997,6.00007c0,0.27629 -0.22373,0.49987 -0.50005,0.49987c-0.27638,0 -0.49999,-0.22358 -0.49999,-0.49987c0,-3.79394 5.03713,-7.00017 11.00001,-7.00017c0.27632,0 0.49999,0.22373 0.49999,0.50002zM46.00007,28.00014c0,6.62694 -7.16417,11.99992 -16.00006,11.99992c-1.05665,0 -2.08697,-0.08198 -3.08598,-0.22836c-0.6836,0.83293 -3.62786,3.70398 -6.75288,4.21582c0.00389,-0.01289 -0.16111,0.01261 -0.25492,0.01261c-0.50103,0 -0.90624,-0.40543 -0.90624,-0.90637c0,-0.127 0.02736,-0.24794 0.07423,-0.35728c0,0 -0.00097,0 -0.00201,0c0.58894,-1.01357 1.9278,-2.94355 1.9278,-4.73642c0,-0.02927 0.00778,-0.04694 0.00778,-0.07429c-4.22847,-2.16005 -7.0078,-5.79878 -7.0078,-9.92563c0,-6.62694 7.16301,-11.99992 16,-11.99992c8.83589,0 16.00006,5.37298 16.00006,11.99992zM44.00004,28.00014c0,-5.51365 -6.2803,-10.00013 -14.00003,-10.00013c-7.71979,0 -13.99997,4.48648 -13.99997,10.00013c0,3.20688 2.21191,6.25178 5.91789,8.14451c0.66901,0.34154 1.0899,1.03024 1.0899,1.78112c0,0.05577 -0.00304,0.12009 -0.00882,0.18469c-0.02049,1.0333 -0.32617,2.03725 -0.71582,2.93158c1.43942,-0.8563 2.65724,-2.01773 3.08495,-2.53919c0.38278,-0.46668 0.9522,-0.73136 1.54588,-0.73136c0.09569,0 0.19339,0.00691 0.29012,0.02165c0.9384,0.13747 1.87886,0.20692 2.79586,0.20692c7.71973,0 14.00003,-4.48627 14.00003,-9.99992z" fill="#666d89" fill-opacity="1"></path></g><g><title>Ellipse</title><path d="M29.50001,0.00002c16.29237,0 29.49998,13.20758 29.49998,29.5001c0,16.29223 -13.2076,29.49982 -29.49998,29.49982c-16.29237,0 -29.49998,-13.20758 -29.49998,-29.49982c0,-16.29252 13.2076,-29.5001 29.49998,-29.5001z" fill-opacity="0" fill="#ffffff" stroke-dashoffset="0" stroke-dasharray="" stroke-linejoin="miter" stroke-linecap="butt" stroke-opacity="1" stroke="#666d89" stroke-miterlimit="50" stroke-width="4" clip-path="url(&quot;#ClipPath1090&quot;)"></path></g></g></svg>