<?xml version="1.0" encoding="UTF-8"?>
<svg id="SVGDoc" width="59" height="59" xmlns="http://www.w3.org/2000/svg" version="1.1" xmlns:xlink="http://www.w3.org/1999/xlink" xmlns:avocode="https://avocode.com/" viewBox="0 0 59 59"><defs><clipPath id="ClipPath1106"><path d="M29.5,0.00001c16.29243,0 29.50004,13.20758 29.50004,29.5001c0,16.29223 -13.2076,29.49982 -29.50004,29.49982c-16.29237,0 -29.49998,-13.20758 -29.49998,-29.49982c0,-16.29252 13.2076,-29.5001 29.49998,-29.5001z" fill="#ffffff"></path></clipPath></defs><desc>Generated with Avocode.</desc><g><g><title>heart</title><path d="M43.19209,32.19152c-0.12105,0.11988 -11.05266,10.93022 -11.05266,10.93022c-1.18262,1.16941 -3.09571,1.16941 -4.27827,0c0,0 -9.98343,-9.87292 -11.05285,-10.93022c-3.74119,-3.70098 -3.74119,-9.6992 0,-13.39918c3.6309,-3.59165 9.4317,-3.66672 13.19149,-0.28762c3.7607,-3.37911 9.56254,-3.30403 13.19228,0.28762c3.74125,3.69999 3.74125,9.6982 0,13.39918zM41.76543,20.20193c-2.84279,-2.81235 -7.41599,-2.91079 -10.40919,-0.22145l-1.35644,1.21842l-1.35546,-1.21842c-2.99321,-2.68934 -7.56542,-2.5909 -10.40925,0.22145c-2.95016,2.91663 -2.95016,7.66237 0,10.579l11.05273,10.93022c0.39165,0.38926 1.03233,0.38926 1.42483,0l11.05279,-10.93022c2.95016,-2.91663 2.95016,-7.66237 0,-10.579zM23.75172,21.52562c0,0.27615 -0.22361,0.49945 -0.49999,0.49945h-0.00097c-1.79393,0 -3.24904,1.45347 -3.24904,3.24534v0.00107c0,0.27586 -0.22361,0.49945 -0.49999,0.49945c-0.27638,0 -0.49999,-0.22358 -0.49999,-0.49945c0,-2.34303 1.90142,-4.24231 4.2461,-4.24416c0.00201,0 0.00201,-0.00107 0.00389,-0.00107c0.27638,0 0.49999,0.2233 0.49999,0.49938z" fill="#666d89" fill-opacity="1"></path></g><g><title>Ellipse</title><path d="M29.5,0.00001c16.29243,0 29.50004,13.20758 29.50004,29.5001c0,16.29223 -13.2076,29.49982 -29.50004,29.49982c-16.29237,0 -29.49998,-13.20758 -29.49998,-29.49982c0,-16.29252 13.2076,-29.5001 29.49998,-29.5001z" fill-opacity="0" fill="#ffffff" stroke-dashoffset="0" stroke-dasharray="" stroke-linejoin="miter" stroke-linecap="butt" stroke-opacity="1" stroke="#666d89" stroke-miterlimit="50" stroke-width="4" clip-path="url(&quot;#ClipPath1106&quot;)"></path></g></g></svg>