<?xml version="1.0" encoding="UTF-8"?>
<svg id="SVGDoc" width="59" height="59" xmlns="http://www.w3.org/2000/svg" version="1.1" xmlns:xlink="http://www.w3.org/1999/xlink" xmlns:avocode="https://avocode.com/" viewBox="0 0 59 59"><defs><clipPath id="ClipPath1074"><path d="M29.50001,0.00001c16.29237,0 29.49998,13.20758 29.49998,29.5001c0,16.29223 -13.2076,29.49982 -29.49998,29.49982c-16.29237,0 -29.49998,-13.20758 -29.49998,-29.49982c0,-16.29252 13.2076,-29.5001 29.49998,-29.5001z" fill="#ffffff"></path></clipPath></defs><desc>Generated with Avocode.</desc><g><g><title>bulb</title><path d="M41.00002,24.00006c0,4.00007 -3.68361,8.31845 -5.03117,12.0782c-2.00404,5.58787 -1.71878,8.92175 -5.96884,8.92175c-4.1875,0 -3.96577,-3.34862 -5.96866,-8.94511c-1.34282,-3.75212 -5.03136,-8.02364 -5.03136,-12.05484c0,-6.07514 4.92484,-11.00003 11.00001,-11.00003c6.07524,0 11.00001,4.92489 11.00001,11.00003zM32.95211,38.98164c0.0811,-0.27736 0.17582,-0.58798 0.26374,-0.88386l-6.1885,0.77346c0.00201,0.00969 0.0059,0.02144 0.00875,0.03134c0.23054,0.78101 0.4209,1.38075 0.59775,1.89337l4.95895,-0.62011c0.11029,-0.35436 0.22853,-0.74504 0.35931,-1.1942zM33.53522,37.05878c0.10646,-0.34004 0.22945,-0.69917 0.35153,-1.0588h-7.76563c0.22853,0.6721 0.4336,1.30674 0.6152,1.90833zM32.24122,41.21968l-4.23832,0.53036c0.51762,1.13387 0.98442,1.25011 1.99711,1.25011c1.18073,0 1.62795,-0.127 2.24121,-1.78048zM36.34469,30.79503c1.30573,-2.34866 2.65536,-4.77745 2.65536,-6.79497c0,-4.96292 -4.03715,-8.99996 -9.00005,-8.99996c-4.9629,0 -8.99998,4.03704 -8.99998,8.99996c0,2.03326 1.34859,4.44837 2.65329,6.78321c0.58991,1.05666 1.18754,2.13775 1.68559,3.21671h9.33303c0.49507,-1.07411 1.0879,-2.15143 1.67276,-3.20495zM30.5,18.50009c0,0.27651 -0.22361,0.50002 -0.49999,0.50002c-2.75677,0 -4.99998,2.24317 -4.99998,4.99996c0,0.27636 -0.22361,0.49987 -0.49999,0.49987c-0.27638,0 -0.49999,-0.22351 -0.49999,-0.49987c0,-3.30859 2.69141,-5.99985 5.99997,-5.99985c0.27638,0 0.49999,0.2233 0.49999,0.49987z" fill="#666d89" fill-opacity="1"></path></g><g><title>Ellipse</title><path d="M29.50001,0.00001c16.29237,0 29.49998,13.20758 29.49998,29.5001c0,16.29223 -13.2076,29.49982 -29.49998,29.49982c-16.29237,0 -29.49998,-13.20758 -29.49998,-29.49982c0,-16.29252 13.2076,-29.5001 29.49998,-29.5001z" fill-opacity="0" fill="#ffffff" stroke-dashoffset="0" stroke-dasharray="" stroke-linejoin="miter" stroke-linecap="butt" stroke-opacity="1" stroke="#666d89" stroke-miterlimit="50" stroke-width="4" clip-path="url(&quot;#ClipPath1074&quot;)"></path></g></g></svg>