<?xml version="1.0" encoding="UTF-8"?>
<svg id="SVGDoc" width="59" height="59" xmlns="http://www.w3.org/2000/svg" version="1.1" xmlns:xlink="http://www.w3.org/1999/xlink" xmlns:avocode="https://avocode.com/" viewBox="0 0 59 59"><defs><clipPath id="ClipPath1122"><path d="M29.5,0.00002c16.29243,0 29.50004,13.20758 29.50004,29.5001c0,16.29223 -13.2076,29.49982 -29.50004,29.49982c-16.29237,0 -29.49998,-13.20758 -29.49998,-29.49982c0,-16.29252 13.2076,-29.5001 29.49998,-29.5001z" fill="#ffffff"></path></clipPath></defs><desc>Generated with Avocode.</desc><g><g><title>star</title><path d="M45.34356,27.8418l-6.10259,6.0928l1.41602,8.45136c0.14257,0.85039 -0.22562,1.70497 -0.94819,2.20314c-0.39852,0.2723 -0.86435,0.41091 -1.33206,0.41091c-0.38284,0 -0.76756,-0.09359 -1.1172,-0.28035l-7.25974,-3.90811l-7.25883,3.90811c-0.34958,0.18676 -0.73442,0.28035 -1.11823,0.28035c-0.46668,0 -0.93347,-0.13861 -1.33096,-0.41091c-0.72269,-0.49817 -1.09179,-1.35275 -0.94819,-2.20314l1.41498,-8.45136l-6.10162,-6.0928c-0.6045,-0.60251 -0.81249,-1.48438 -0.53708,-2.28498c0.27541,-0.79889 0.98631,-1.38388 1.84178,-1.51088l8.32721,-1.23836l3.61911,-7.51351c0.38089,-0.78899 1.1963,-1.29406 2.09183,-1.29406c0.89645,0 1.71185,0.50507 2.09177,1.29406l3.62008,7.51351l8.32623,1.23836c0.85547,0.127 1.56637,0.71199 1.84275,1.51088c0.27444,0.8006 0.0673,1.68247 -0.53708,2.28498zM43.68929,26.27159l-8.32721,-1.24029c-0.76069,-0.11311 -1.41498,-0.58877 -1.74219,-1.26757l-3.62008,-7.51265l-3.61911,7.51265c-0.32721,0.6788 -0.98254,1.15446 -1.74322,1.26757l-8.32617,1.24029l6.10156,6.09174c0.51173,0.51077 0.74409,1.22853 0.62602,1.93361l-1.41614,8.45215l7.2598,-3.90726c0.34861,-0.18761 0.73345,-0.28121 1.11726,-0.28121c0.38478,0 0.76944,0.09359 1.11817,0.28121l7.25877,3.90726l-1.4151,-8.45215c-0.11807,-0.70508 0.11436,-1.42284 0.62608,-1.93361z" fill="#666d89" fill-opacity="1"></path></g><g><title>Ellipse</title><path d="M29.5,0.00002c16.29243,0 29.50004,13.20758 29.50004,29.5001c0,16.29223 -13.2076,29.49982 -29.50004,29.49982c-16.29237,0 -29.49998,-13.20758 -29.49998,-29.49982c0,-16.29252 13.2076,-29.5001 29.49998,-29.5001z" fill-opacity="0" fill="#ffffff" stroke-dashoffset="0" stroke-dasharray="" stroke-linejoin="miter" stroke-linecap="butt" stroke-opacity="1" stroke="#666d89" stroke-miterlimit="50" stroke-width="4" clip-path="url(&quot;#ClipPath1122&quot;)"></path></g></g></svg>