<?xml version="1.0" encoding="UTF-8"?>
<svg id="SVGDoc" width="59" height="59" xmlns="http://www.w3.org/2000/svg" version="1.1" xmlns:xlink="http://www.w3.org/1999/xlink" xmlns:avocode="https://avocode.com/" viewBox="0 0 59 59"><defs><clipPath id="ClipPath1058"><path d="M29.50002,0.00002c16.29237,0 29.49998,13.20758 29.49998,29.5001c0,16.29223 -13.2076,29.49982 -29.49998,29.49982c-16.29237,0 -29.49998,-13.20758 -29.49998,-29.49982c0,-16.29252 13.2076,-29.5001 29.49998,-29.5001z" fill="#ffffff"></path></clipPath></defs><desc>Generated with Avocode.</desc><g><g><title>phone</title><path d="M41.00003,16.99969v25.99991c0,1.65725 -1.34282,2.99989 -3.00002,2.99989l-16,0.00107c-1.6572,0 -3.00002,-1.34285 -3.00002,-2.99996v-26.00005c0,-1.65725 1.34282,-3.00018 3.00002,-3.00018l16,-0.00078c1.6572,0 3.00002,1.34285 3.00002,3.0001zM39.00006,40.99553l-18.00003,0.00107v2.00399c0,0.55159 0.44819,0.99996 0.99998,0.99996l16,-0.00107c0.55185,0 1.00005,-0.44816 1.00005,-0.99989zM39.00006,19.99965l-18.00003,0.00078v19.99628l18.00003,-0.00107zM39.00006,16.99969c0,-0.5518 -0.44819,-1.00011 -1.00005,-1.00011l-16,0.00107c-0.55179,0 -0.99998,0.44809 -0.99998,0.99989v2l18.00003,-0.001zM31.50005,17.99958h-3.00002c-0.27638,0 -0.49999,-0.22351 -0.49999,-0.50002c0,-0.27636 0.22361,-0.49987 0.49999,-0.49987h3.00002c0.27638,0 0.49999,0.22351 0.49999,0.49987c0,0.27651 -0.22361,0.50002 -0.49999,0.50002zM30.5,42.99575h-0.99998c-0.27638,0 -0.49999,-0.22373 -0.49999,-0.50002c0,-0.27629 0.22361,-0.50009 0.49999,-0.50009h0.99998c0.27644,0 0.49999,0.2238 0.49999,0.50009c0,0.27629 -0.22355,0.50002 -0.49999,0.50002z" fill="#666d89" fill-opacity="1"></path></g><g><title>Ellipse</title><path d="M29.50002,0.00002c16.29237,0 29.49998,13.20758 29.49998,29.5001c0,16.29223 -13.2076,29.49982 -29.49998,29.49982c-16.29237,0 -29.49998,-13.20758 -29.49998,-29.49982c0,-16.29252 13.2076,-29.5001 29.49998,-29.5001z" fill-opacity="0" fill="#ffffff" stroke-dashoffset="0" stroke-dasharray="" stroke-linejoin="miter" stroke-linecap="butt" stroke-opacity="1" stroke="#666d89" stroke-miterlimit="50" stroke-width="4" clip-path="url(&quot;#ClipPath1058&quot;)"></path></g></g></svg>